<svg width="22" height="21" viewBox="0 0 22 21" fill="none" xmlns="http://www.w3.org/2000/svg">
<path d="M21.0079 10.7338C21.1344 10.4275 21.1344 10.0836 21.0079 9.7773C20.9468 9.62544 20.8565 9.48703 20.7422 9.3699L11.8857 0.513349C11.6508 0.278459 11.3322 0.146499 11 0.146499C10.6678 0.146499 10.3492 0.278459 10.1144 0.513349C9.87946 0.748239 9.7475 1.06682 9.7475 1.399C9.7475 1.73119 9.87946 2.04977 10.1144 2.28466L16.8365 9.00678L2.14346 8.99792C1.97811 8.99725 1.81427 9.02931 1.66138 9.09227C1.5085 9.15523 1.36959 9.24785 1.25267 9.36476C1.13575 9.48168 1.04314 9.62059 0.98018 9.77348C0.917218 9.92637 0.885152 10.0902 0.88583 10.2556C0.885152 10.4209 0.917218 10.5847 0.980179 10.7376C1.04314 10.8905 1.13575 11.0294 1.25267 11.1463C1.36959 11.2633 1.5085 11.3559 1.66138 11.4188C1.81427 11.4818 1.97812 11.5139 2.14346 11.5132L16.8365 11.5043L10.1144 18.2264C9.87946 18.4613 9.7475 18.7799 9.7475 19.1121C9.7475 19.4443 9.87946 19.7629 10.1144 19.9978C10.3492 20.2326 10.6678 20.3646 11 20.3646C11.3322 20.3646 11.6508 20.2326 11.8857 19.9978L20.7422 11.1412C20.8565 11.0241 20.9468 10.8857 21.0079 10.7338Z" fill="white"/>
</svg>
