<svg width="22" height="21" viewBox="0 0 22 21" fill="none" xmlns="http://www.w3.org/2000/svg">
<path d="M0.99209 10.2662C0.865553 10.5725 0.865554 10.9164 0.992091 11.2227C1.05318 11.3746 1.14345 11.513 1.25779 11.6301L10.1143 20.4867C10.3492 20.7215 10.6678 20.8535 11 20.8535C11.3322 20.8535 11.6508 20.7215 11.8856 20.4867C12.1205 20.2518 12.2525 19.9332 12.2525 19.601C12.2525 19.2688 12.1205 18.9502 11.8856 18.7153L5.16353 11.9932L19.8565 12.0021C20.0219 12.0028 20.1857 11.9707 20.3386 11.9077C20.4915 11.8448 20.6304 11.7522 20.7473 11.6352C20.8642 11.5183 20.9569 11.3794 21.0198 11.2265C21.0828 11.0736 21.1148 10.9098 21.1142 10.7444C21.1148 10.5791 21.0828 10.4153 21.0198 10.2624C20.9569 10.1095 20.8642 9.97057 20.7473 9.85366C20.6304 9.73674 20.4915 9.64413 20.3386 9.58117C20.1857 9.5182 20.0219 9.48614 19.8565 9.48682L5.16352 9.49567L11.8856 2.77355C12.1205 2.53866 12.2525 2.22008 12.2525 1.8879C12.2525 1.55571 12.1205 1.23713 11.8856 1.00224C11.6508 0.767354 11.3322 0.635392 11 0.635392C10.6678 0.635392 10.3492 0.767353 10.1143 1.00224L1.25779 9.85879C1.14345 9.97593 1.05318 10.1143 0.99209 10.2662Z" fill="white"/>
</svg>
