<svg width="24" height="18" viewBox="0 0 24 18" fill="none" xmlns="http://www.w3.org/2000/svg">
<path d="M1 1.66667C0.447715 1.66667 0 2.11438 0 2.66667C0 3.21895 0.447715 3.66667 1 3.66667V1.66667ZM11.3529 3.66667C11.9052 3.66667 12.3529 3.21895 12.3529 2.66667C12.3529 2.11438 11.9052 1.66667 11.3529 1.66667V3.66667ZM1 7C0.447715 7 0 7.44772 0 8C0 8.55229 0.447715 9 1 9V7ZM8.76471 9C9.31699 9 9.76471 8.55229 9.76471 8C9.76471 7.44772 9.31699 7 8.76471 7V9ZM1 12.3333C0.447715 12.3333 0 12.781 0 13.3333C0 13.8856 0.447715 14.3333 1 14.3333V12.3333ZM6.17647 14.3333C6.72876 14.3333 7.17647 13.8856 7.17647 13.3333C7.17647 12.781 6.72876 12.3333 6.17647 12.3333V14.3333ZM19.1176 16L18.4001 16.6965L19.1176 17.4358L19.8352 16.6965L19.1176 16ZM1 3.66667H11.3529V1.66667H1V3.66667ZM1 9H8.76471V7H1V9ZM1 14.3333H6.17647V12.3333H1V14.3333ZM19.8352 16.6965L23.7176 12.6965L22.2824 11.3035L18.4001 15.3035L19.8352 16.6965ZM19.8352 15.3035L15.9529 11.3035L14.5177 12.6965L18.4001 16.6965L19.8352 15.3035ZM18.1176 -7.71354e-08V16H20.1176V7.71354e-08L18.1176 -7.71354e-08Z" fill="#383D41"/>
</svg>
