<svg width="229" height="198" viewBox="0 0 229 198" fill="none" xmlns="http://www.w3.org/2000/svg">
<path opacity="0.6" d="M69.1922 58.5039C61.8588 54.27 52.6922 59.5624 52.6922 68.0302L52.6922 151.702C52.6922 160.17 61.8589 165.462 69.1922 161.228L141.654 119.392C148.987 115.158 148.987 104.574 141.654 100.34L69.1922 58.5039Z" stroke="#0D9DB4" stroke-width="6"/>
<path opacity="0.6" d="M167.362 22.1482C161.695 18.8766 154.612 22.9662 154.612 29.5095L154.612 74.9488C154.612 81.4921 161.695 85.5817 167.362 82.31L206.714 59.5904C212.38 56.3187 212.38 48.1396 206.714 44.8679L167.362 22.1482Z" stroke="#0D9DB4" stroke-width="5"/>
<path opacity="0.6" d="M185.716 106.425C180.05 103.153 172.966 107.243 172.966 113.786L172.966 135.934C172.966 142.477 180.05 146.567 185.716 143.295L204.897 132.221C210.563 128.949 210.563 120.77 204.897 117.499L185.716 106.425Z" stroke="#0D9DB4" stroke-width="5"/>
</svg>
