<svg width="93" height="93" viewBox="0 0 93 93" fill="none" xmlns="http://www.w3.org/2000/svg">
<path d="M46.5 90C56.5639 90 66.3165 86.5105 74.0961 80.126C81.8756 73.7415 87.2007 64.857 89.1641 54.9864C91.1275 45.1159 89.6076 34.8699 84.8635 25.9943C80.1194 17.1186 72.4446 10.1626 63.1467 6.31125C53.8488 2.45994 43.5032 1.95169 33.8726 4.8731C24.2421 7.79451 15.9224 13.9648 10.3311 22.3327C4.73991 30.7006 2.2231 40.7482 3.20953 50.7637C4.19597 60.7792 8.62462 70.1428 15.7409 77.2591M65.8333 36.8333L48.4432 57.7015C45.2746 61.5038 43.6903 63.405 41.5609 63.5015C39.4315 63.5981 37.6816 61.8482 34.1817 58.3484L27.1667 51.3333" stroke="#4CA4E4" stroke-width="6" stroke-linecap="round"/>
</svg>
