<svg width="14" height="72" viewBox="0 0 14 72" fill="none" xmlns="http://www.w3.org/2000/svg">
<path d="M3.6418 49.5L1.7418 20V-4.76837e-06H12.2418V20L10.3418 49.5H3.6418ZM6.9418 71.1C5.1418 71.1 3.60846 70.4667 2.3418 69.2C1.07513 67.9333 0.441797 66.4 0.441797 64.6C0.441797 62.8 1.07513 61.2667 2.3418 60C3.60846 58.7333 5.1418 58.1 6.9418 58.1C8.80846 58.1 10.3418 58.7333 11.5418 60C12.8085 61.2667 13.4418 62.8 13.4418 64.6C13.4418 66.4 12.8085 67.9333 11.5418 69.2C10.3418 70.4667 8.80846 71.1 6.9418 71.1Z" fill="#E4A74C"/>
</svg>
