<svg width="86" height="86" viewBox="0 0 86 86" fill="none" xmlns="http://www.w3.org/2000/svg">
<path fill-rule="evenodd" clip-rule="evenodd" d="M50.9351 5.16644C51.2844 5.84372 51.3711 6.71106 51.5446 8.44576C51.8729 11.7292 52.0371 13.3709 52.7242 14.2717C53.5959 15.4143 55.0135 16.0015 56.4378 15.8099C57.5606 15.6589 58.8376 14.6141 61.3915 12.5245C62.7407 11.4206 63.4154 10.8686 64.1412 10.6367C65.0632 10.3422 66.0608 10.3919 66.9489 10.7768C67.6481 11.0797 68.2645 11.6961 69.4972 12.9288L73.071 16.5027C74.3038 17.7354 74.9201 18.3518 75.2231 19.051C75.6079 19.9391 75.6577 20.9366 75.3631 21.8586C75.1312 22.5845 74.5793 23.2591 73.4753 24.6084C71.3857 27.1624 70.3409 28.4394 70.1898 29.5622C69.9983 30.9865 70.5854 32.4041 71.728 33.2757C72.6288 33.9629 74.2706 34.1271 77.5541 34.4554C79.2889 34.6289 80.1563 34.7156 80.8336 35.065C81.6938 35.5086 82.3639 36.2491 82.7198 37.1492C83 37.8579 83 38.7296 83 40.473V45.5275C83 47.2705 83 48.1419 82.7199 48.8505C82.3641 49.7508 81.6937 50.4915 80.8333 50.9352C80.1561 51.2844 79.2889 51.3711 77.5545 51.5445C74.272 51.8728 72.6307 52.0369 71.7302 52.7237C70.587 53.5954 69.9995 55.0136 70.1915 56.4384C70.3427 57.5608 71.3871 58.8373 73.4759 61.3904C74.5795 62.7391 75.1312 63.4135 75.3632 64.1391C75.6579 65.0614 75.6082 66.0593 75.2231 66.9477C74.9201 67.6467 74.304 68.2628 73.0717 69.4951L69.4973 73.0694C68.2646 74.3021 67.6483 74.9185 66.9491 75.2215C66.061 75.6063 65.0634 75.656 64.1414 75.3615C63.4155 75.1296 62.7409 74.5776 61.3917 73.4737C58.8378 71.3842 57.5608 70.3394 56.438 70.1883C55.0137 69.9967 53.5961 70.5839 52.7244 71.7265C52.0373 72.6273 51.8731 74.2693 51.5447 77.5533C51.3711 79.2888 51.2843 80.1565 50.9348 80.834C50.4912 81.6938 49.751 82.3638 48.8512 82.7196C48.1423 83 47.2704 83 45.5265 83H40.473C38.7296 83 37.8579 83 37.1492 82.7198C36.2491 82.3639 35.5086 81.6938 35.065 80.8336C34.7156 80.1563 34.6289 79.2889 34.4554 77.5542C34.1271 74.2706 33.9629 72.6288 33.2757 71.728C32.404 70.5855 30.9865 69.9983 29.5623 70.1899C28.4394 70.3409 27.1624 71.3857 24.6083 73.4754C23.259 74.5794 22.5843 75.1314 21.8583 75.3633C20.9364 75.6578 19.9389 75.6081 19.0509 75.2233C18.3516 74.9203 17.7352 74.3039 16.5024 73.0712L12.9287 69.4974C11.6959 68.2646 11.0795 67.6483 10.7766 66.949C10.3918 66.0609 10.342 65.0635 10.6365 64.1415C10.8684 63.4156 11.4204 62.7409 12.5244 61.3916C14.614 58.8376 15.6588 57.5606 15.8099 56.4378C16.0015 55.0135 15.4143 53.5959 14.2717 52.7242C13.3709 52.0371 11.7292 51.8729 8.44573 51.5446C6.71105 51.3711 5.84372 51.2844 5.16645 50.9351C4.30623 50.4914 3.63606 49.7509 3.28019 48.8508C3 48.1421 3 47.2704 3 45.5271V40.4734C3 38.7296 3 37.8577 3.28034 37.1489C3.6362 36.2491 4.30616 35.5088 5.16609 35.0651C5.84351 34.7156 6.71108 34.6289 8.4462 34.4554C11.7305 34.1269 13.3728 33.9627 14.2737 33.2752C15.4158 32.4037 16.0028 30.9865 15.8115 29.5626C15.6606 28.4395 14.6154 27.1621 12.5251 24.6073C11.4207 23.2574 10.8684 22.5824 10.6365 21.8562C10.3423 20.9346 10.392 19.9375 10.7765 19.0497C11.0795 18.3502 11.6961 17.7336 12.9293 16.5004L16.5026 12.9271C17.7354 11.6943 18.3518 11.0779 19.0511 10.7749C19.9391 10.3901 20.9366 10.3404 21.8585 10.6349C22.5845 10.8668 23.2592 11.4189 24.6088 12.5231C27.1625 14.6124 28.4393 15.6571 29.5618 15.8083C30.9865 16.0001 32.4045 15.4127 33.2763 14.2697C33.9631 13.3691 34.1272 11.7278 34.4555 8.44522C34.6289 6.71103 34.7156 5.84393 35.0648 5.16682C35.5085 4.3063 36.2492 3.63592 37.1496 3.28004C37.8581 3 38.7295 3 40.4724 3H45.5271C47.2704 3 48.1421 3 48.8508 3.28019C49.7509 3.63606 50.4914 4.30623 50.9351 5.16644ZM43 59C51.8366 59 59 51.8366 59 43C59 34.1634 51.8366 27 43 27C34.1634 27 27 34.1634 27 43C27 51.8366 34.1634 59 43 59Z" stroke="#4CA4E4" stroke-width="6"/>
</svg>
