<svg width="13" height="13" viewBox="0 0 13 13" fill="none" xmlns="http://www.w3.org/2000/svg">
<path d="M0.0738306 6.06724C-0.00574995 6.25986 -0.00574913 6.47617 0.0738312 6.66879C0.112253 6.7643 0.169023 6.85134 0.240929 6.92501L5.81087 12.495C5.95859 12.6427 6.15895 12.7257 6.36786 12.7257C6.57678 12.7257 6.77713 12.6427 6.92486 12.495C7.07258 12.3472 7.15557 12.1469 7.15557 11.938C7.15557 11.729 7.07258 11.5287 6.92486 11.381L2.69727 7.15338L11.9378 7.15895C12.0418 7.15937 12.1448 7.13921 12.241 7.09961C12.3371 7.06001 12.4245 7.00177 12.498 6.92824C12.5716 6.85471 12.6298 6.76735 12.6694 6.6712C12.709 6.57504 12.7292 6.472 12.7287 6.36802C12.7292 6.26403 12.709 6.16099 12.6694 6.06484C12.6298 5.96868 12.5716 5.88132 12.498 5.80779C12.4245 5.73426 12.3371 5.67602 12.241 5.63642C12.1448 5.59683 12.0418 5.57666 11.9378 5.57709L2.69727 5.58266L6.92486 1.35507C7.07258 1.20735 7.15557 1.00699 7.15557 0.798076C7.15557 0.589163 7.07258 0.388806 6.92486 0.241082C6.77713 0.0933578 6.57678 0.0103663 6.36786 0.0103663C6.15895 0.0103656 5.95859 0.0933571 5.81087 0.241082L0.240929 5.81102C0.169022 5.88469 0.112253 5.97174 0.0738306 6.06724Z" fill="#4CA4E4"/>
</svg>
